<svg width="23" height="18" viewBox="0 0 23 18" fill="none" xmlns="http://www.w3.org/2000/svg">
<path d="M22.9975 2.11613C22.1794 2.475 21.3076 2.71288 20.3987 2.82838C21.3337 2.27013 22.0474 1.39287 22.3829 0.3355C21.5111 0.85525 20.5486 1.22238 19.5229 1.42725C18.6951 0.545875 17.5154 0 16.2284 0C13.7314 0 11.7211 2.02675 11.7211 4.51137C11.7211 4.86888 11.7514 5.21263 11.8256 5.53988C8.076 5.357 4.75812 3.55988 2.52925 0.82225C2.14012 1.49738 1.91187 2.27012 1.91187 3.102C1.91187 4.664 2.71625 6.04862 3.91525 6.85025C3.19062 6.8365 2.47975 6.62613 1.8775 6.29475C1.8775 6.3085 1.8775 6.32638 1.8775 6.34425C1.8775 8.536 3.44087 10.3565 5.491 10.7759C5.12387 10.8763 4.72375 10.9244 4.3085 10.9244C4.01975 10.9244 3.72825 10.9079 3.45462 10.8474C4.039 12.6335 5.69725 13.9466 7.669 13.9893C6.1345 15.1896 4.18612 15.9129 2.07687 15.9129C1.707 15.9129 1.35225 15.8964 0.997498 15.851C2.99537 17.1394 5.36312 17.875 7.9165 17.875C16.216 17.875 20.7535 11 20.7535 5.04075C20.7535 4.84137 20.7466 4.64887 20.737 4.45775C21.6321 3.8225 22.3842 3.02913 22.9975 2.11613Z" fill="black"/>
</svg>
